<?xml version="1.0" encoding="UTF-8" standalone="no"?>
<!DOCTYPE svg PUBLIC "-//W3C//DTD SVG 1.1//EN"
 "http://www.w3.org/Graphics/SVG/1.1/DTD/svg11.dtd">
<!-- Generated by graphviz version 2.38.0 (20140413.2041)
 -->
<!-- Title: controllers_diagram Pages: 1 -->
<svg width="472pt" height="461pt"
 viewBox="0.00 0.00 471.94 461.00" xmlns="http://www.w3.org/2000/svg" xmlns:xlink="http://www.w3.org/1999/xlink">
<g id="graph0" class="graph" transform="scale(1 1) rotate(0) translate(100.249 249.5)">
<title>controllers_diagram</title>
<polygon fill="none" stroke="none" points="-100.249,211.5 -100.249,-249.5 371.688,-249.5 371.688,211.5 -100.249,211.5"/>
<!-- _diagram_info -->
<g id="node1" class="node"><title>_diagram_info</title>
<text text-anchor="start" x="168.312" y="-219.1" font-family="Times,serif" font-size="13.00">Controllers diagram</text>
<text text-anchor="start" x="168.312" y="-206.1" font-family="Times,serif" font-size="13.00">Date: Apr 12 2016 &#45; 01:57</text>
<text text-anchor="start" x="168.312" y="-193.1" font-family="Times,serif" font-size="13.00">Migration version: 20160409194428</text>
<text text-anchor="start" x="168.312" y="-180.1" font-family="Times,serif" font-size="13.00">Generated by RailRoady 1.4.2</text>
<text text-anchor="start" x="168.312" y="-167.1" font-family="Times,serif" font-size="13.00">http://railroady.prestonlee.com</text>
</g>
<!-- ApplicationController -->
<g id="node2" class="node"><title>ApplicationController</title>
<path fill="none" stroke="black" d="M-84.2485,-129C-84.2485,-129 42.2485,-129 42.2485,-129 48.2485,-129 54.2485,-135 54.2485,-141 54.2485,-141 54.2485,-233 54.2485,-233 54.2485,-239 48.2485,-245 42.2485,-245 42.2485,-245 -84.2485,-245 -84.2485,-245 -90.2485,-245 -96.2485,-239 -96.2485,-233 -96.2485,-233 -96.2485,-141 -96.2485,-141 -96.2485,-135 -90.2485,-129 -84.2485,-129"/>
<text text-anchor="middle" x="-21" y="-229.8" font-family="Times,serif" font-size="14.00">ApplicationController</text>
<polyline fill="none" stroke="black" points="-96.2485,-223 54.2485,-223 "/>
<text text-anchor="start" x="-88.2485" y="-207.8" font-family="Times,serif" font-size="14.00">after_sign_in_path_for</text>
<polyline fill="none" stroke="black" points="-96.2485,-201 54.2485,-201 "/>
<text text-anchor="start" x="-88.2485" y="-185.8" font-family="Times,serif" font-size="14.00">extract_locale_from_tld</text>
<text text-anchor="start" x="-88.2485" y="-171.8" font-family="Times,serif" font-size="14.00">set_locale</text>
<text text-anchor="start" x="-88.2485" y="-157.8" font-family="Times,serif" font-size="14.00">set_veterinary</text>
<polyline fill="none" stroke="black" points="-96.2485,-151 54.2485,-151 "/>
<text text-anchor="start" x="-88.2485" y="-135.8" font-family="Times,serif" font-size="14.00">_layout</text>
</g>
<!-- CustomersController -->
<g id="node3" class="node"><title>CustomersController</title>
<path fill="none" stroke="black" d="M-67.7173,111C-67.7173,111 41.7173,111 41.7173,111 47.7173,111 53.7173,105 53.7173,99 53.7173,99 53.7173,-79 53.7173,-79 53.7173,-85 47.7173,-91 41.7173,-91 41.7173,-91 -67.7173,-91 -67.7173,-91 -73.7173,-91 -79.7173,-85 -79.7173,-79 -79.7173,-79 -79.7173,99 -79.7173,99 -79.7173,105 -73.7173,111 -67.7173,111"/>
<text text-anchor="middle" x="-13" y="-75.8" font-family="Times,serif" font-size="14.00">CustomersController</text>
<polyline fill="none" stroke="black" points="-79.7173,-69 53.7173,-69 "/>
<text text-anchor="start" x="-71.7173" y="-53.8" font-family="Times,serif" font-size="14.00">index</text>
<text text-anchor="start" x="-71.7173" y="-39.8" font-family="Times,serif" font-size="14.00">destroy</text>
<text text-anchor="start" x="-71.7173" y="-25.8" font-family="Times,serif" font-size="14.00">edit</text>
<text text-anchor="start" x="-71.7173" y="-11.8" font-family="Times,serif" font-size="14.00">create</text>
<text text-anchor="start" x="-71.7173" y="2.2" font-family="Times,serif" font-size="14.00">new</text>
<text text-anchor="start" x="-71.7173" y="16.2" font-family="Times,serif" font-size="14.00">show</text>
<text text-anchor="start" x="-71.7173" y="30.2" font-family="Times,serif" font-size="14.00">update</text>
<polyline fill="none" stroke="black" points="-79.7173,37 53.7173,37 "/>
<polyline fill="none" stroke="black" points="-79.7173,61 53.7173,61 "/>
<text text-anchor="start" x="-71.7173" y="76.2" font-family="Times,serif" font-size="14.00">_layout</text>
<text text-anchor="start" x="-71.7173" y="90.2" font-family="Times,serif" font-size="14.00">customer_params</text>
<text text-anchor="start" x="-71.7173" y="104.2" font-family="Times,serif" font-size="14.00">set_customer</text>
</g>
<!-- PetsController -->
<g id="node4" class="node"><title>PetsController</title>
<path fill="none" stroke="black" d="M91.5586,79C91.5586,79 164.441,79 164.441,79 170.441,79 176.441,73 176.441,67 176.441,67 176.441,-111 176.441,-111 176.441,-117 170.441,-123 164.441,-123 164.441,-123 91.5586,-123 91.5586,-123 85.5586,-123 79.5586,-117 79.5586,-111 79.5586,-111 79.5586,67 79.5586,67 79.5586,73 85.5586,79 91.5586,79"/>
<text text-anchor="middle" x="128" y="-107.8" font-family="Times,serif" font-size="14.00">PetsController</text>
<polyline fill="none" stroke="black" points="79.5586,-101 176.441,-101 "/>
<text text-anchor="start" x="87.5586" y="-85.8" font-family="Times,serif" font-size="14.00">index</text>
<text text-anchor="start" x="87.5586" y="-71.8" font-family="Times,serif" font-size="14.00">destroy</text>
<text text-anchor="start" x="87.5586" y="-57.8" font-family="Times,serif" font-size="14.00">edit</text>
<text text-anchor="start" x="87.5586" y="-43.8" font-family="Times,serif" font-size="14.00">create</text>
<text text-anchor="start" x="87.5586" y="-29.8" font-family="Times,serif" font-size="14.00">new</text>
<text text-anchor="start" x="87.5586" y="-15.8" font-family="Times,serif" font-size="14.00">show</text>
<text text-anchor="start" x="87.5586" y="-1.8" font-family="Times,serif" font-size="14.00">update</text>
<polyline fill="none" stroke="black" points="79.5586,5 176.441,5 "/>
<polyline fill="none" stroke="black" points="79.5586,29 176.441,29 "/>
<text text-anchor="start" x="87.5586" y="44.2" font-family="Times,serif" font-size="14.00">_layout</text>
<text text-anchor="start" x="87.5586" y="58.2" font-family="Times,serif" font-size="14.00">pet_params</text>
<text text-anchor="start" x="87.5586" y="72.2" font-family="Times,serif" font-size="14.00">set_pet</text>
</g>
<!-- VisitsController -->
<g id="node5" class="node"><title>VisitsController</title>
<path fill="none" stroke="black" d="M220.307,207C220.307,207 301.693,207 301.693,207 307.693,207 313.693,201 313.693,195 313.693,195 313.693,73 313.693,73 313.693,67 307.693,61 301.693,61 301.693,61 220.307,61 220.307,61 214.307,61 208.307,67 208.307,73 208.307,73 208.307,195 208.307,195 208.307,201 214.307,207 220.307,207"/>
<text text-anchor="middle" x="261" y="76.2" font-family="Times,serif" font-size="14.00">VisitsController</text>
<polyline fill="none" stroke="black" points="208.307,83 313.693,83 "/>
<text text-anchor="start" x="216.307" y="98.2" font-family="Times,serif" font-size="14.00">create</text>
<text text-anchor="start" x="216.307" y="112.2" font-family="Times,serif" font-size="14.00">index</text>
<text text-anchor="start" x="216.307" y="126.2" font-family="Times,serif" font-size="14.00">new</text>
<polyline fill="none" stroke="black" points="208.307,133 313.693,133 "/>
<polyline fill="none" stroke="black" points="208.307,157 313.693,157 "/>
<text text-anchor="start" x="216.307" y="172.2" font-family="Times,serif" font-size="14.00">_layout</text>
<text text-anchor="start" x="216.307" y="186.2" font-family="Times,serif" font-size="14.00">show</text>
<text text-anchor="start" x="216.307" y="200.2" font-family="Times,serif" font-size="14.00">visit_params</text>
</g>
<!-- WelcomeController -->
<g id="node6" class="node"><title>WelcomeController</title>
<path fill="none" stroke="black" d="M219.967,31C219.967,31 322.033,31 322.033,31 328.033,31 334.033,25 334.033,19 334.033,19 334.033,-47 334.033,-47 334.033,-53 328.033,-59 322.033,-59 322.033,-59 219.967,-59 219.967,-59 213.967,-59 207.967,-53 207.967,-47 207.967,-47 207.967,19 207.967,19 207.967,25 213.967,31 219.967,31"/>
<text text-anchor="middle" x="271" y="-43.8" font-family="Times,serif" font-size="14.00">WelcomeController</text>
<polyline fill="none" stroke="black" points="207.967,-37 334.033,-37 "/>
<text text-anchor="start" x="215.967" y="-21.8" font-family="Times,serif" font-size="14.00">home</text>
<polyline fill="none" stroke="black" points="207.967,-15 334.033,-15 "/>
<polyline fill="none" stroke="black" points="207.967,9 334.033,9 "/>
<text text-anchor="start" x="215.967" y="24.2" font-family="Times,serif" font-size="14.00">_layout</text>
</g>
</g>
</svg>
