<?xml version="1.0" encoding="UTF-8" standalone="no"?>
<!DOCTYPE svg PUBLIC "-//W3C//DTD SVG 1.1//EN"
 "http://www.w3.org/Graphics/SVG/1.1/DTD/svg11.dtd">
<!-- Generated by graphviz version 2.38.0 (20140413.2041)
 -->
<!-- Title: models_diagram Pages: 1 -->
<svg width="705pt" height="744pt"
 viewBox="0.00 0.00 705.32 744.00" xmlns="http://www.w3.org/2000/svg" xmlns:xlink="http://www.w3.org/1999/xlink">
<g id="graph0" class="graph" transform="scale(1 1) rotate(0) translate(4 740)">
<title>models_diagram</title>
<polygon fill="none" stroke="none" points="-4,4 -4,-740 701.323,-740 701.323,4 -4,4"/>
<!-- _diagram_info -->
<g id="node1" class="node"><title>_diagram_info</title>
<text text-anchor="start" x="8" y="-700.6" font-family="Times,serif" font-size="13.00">Models diagram</text>
<text text-anchor="start" x="8" y="-687.6" font-family="Times,serif" font-size="13.00">Date: Apr 12 2016 &#45; 01:57</text>
<text text-anchor="start" x="8" y="-674.6" font-family="Times,serif" font-size="13.00">Migration version: 20160409194428</text>
<text text-anchor="start" x="8" y="-661.6" font-family="Times,serif" font-size="13.00">Generated by RailRoady 1.4.2</text>
<text text-anchor="start" x="8" y="-648.6" font-family="Times,serif" font-size="13.00">http://railroady.prestonlee.com</text>
</g>
<!-- Customer -->
<g id="node2" class="node"><title>Customer</title>
<path fill="none" stroke="black" d="M85.8254,-393.5C85.8254,-393.5 309.55,-393.5 309.55,-393.5 315.55,-393.5 321.55,-399.5 321.55,-405.5 321.55,-405.5 321.55,-509.5 321.55,-509.5 321.55,-515.5 315.55,-521.5 309.55,-521.5 309.55,-521.5 85.8254,-521.5 85.8254,-521.5 79.8254,-521.5 73.8254,-515.5 73.8254,-509.5 73.8254,-509.5 73.8254,-405.5 73.8254,-405.5 73.8254,-399.5 79.8254,-393.5 85.8254,-393.5"/>
<text text-anchor="middle" x="197.688" y="-506.3" font-family="Times,serif" font-size="14.00">Customer</text>
<polyline fill="none" stroke="black" points="73.8254,-499.5 321.55,-499.5 "/>
<text text-anchor="start" x="81.8254" y="-484.3" font-family="Times,serif" font-size="14.00">phone :character varying</text>
<text text-anchor="start" x="81.8254" y="-470.3" font-family="Times,serif" font-size="14.00">name :character varying</text>
<text text-anchor="start" x="81.8254" y="-456.3" font-family="Times,serif" font-size="14.00">email :character varying</text>
<text text-anchor="start" x="81.8254" y="-442.3" font-family="Times,serif" font-size="14.00">id :integer</text>
<text text-anchor="start" x="81.8254" y="-428.3" font-family="Times,serif" font-size="14.00">veterinary_id :integer</text>
<text text-anchor="start" x="81.8254" y="-414.3" font-family="Times,serif" font-size="14.00">created_at :timestamp without time zone</text>
<text text-anchor="start" x="81.8254" y="-400.3" font-family="Times,serif" font-size="14.00">updated_at :timestamp without time zone</text>
</g>
<!-- Pet -->
<g id="node3" class="node"><title>Pet</title>
<path fill="none" stroke="black" d="M161.825,-151.5C161.825,-151.5 385.55,-151.5 385.55,-151.5 391.55,-151.5 397.55,-157.5 397.55,-163.5 397.55,-163.5 397.55,-281.5 397.55,-281.5 397.55,-287.5 391.55,-293.5 385.55,-293.5 385.55,-293.5 161.825,-293.5 161.825,-293.5 155.825,-293.5 149.825,-287.5 149.825,-281.5 149.825,-281.5 149.825,-163.5 149.825,-163.5 149.825,-157.5 155.825,-151.5 161.825,-151.5"/>
<text text-anchor="middle" x="273.688" y="-278.3" font-family="Times,serif" font-size="14.00">Pet</text>
<polyline fill="none" stroke="black" points="149.825,-271.5 397.55,-271.5 "/>
<text text-anchor="start" x="157.825" y="-256.3" font-family="Times,serif" font-size="14.00">updated_at :timestamp without time zone</text>
<text text-anchor="start" x="157.825" y="-242.3" font-family="Times,serif" font-size="14.00">name :character varying</text>
<text text-anchor="start" x="157.825" y="-228.3" font-family="Times,serif" font-size="14.00">breed :character varying</text>
<text text-anchor="start" x="157.825" y="-214.3" font-family="Times,serif" font-size="14.00">age :character varying</text>
<text text-anchor="start" x="157.825" y="-200.3" font-family="Times,serif" font-size="14.00">veterinary_id :integer</text>
<text text-anchor="start" x="157.825" y="-186.3" font-family="Times,serif" font-size="14.00">customer_id :integer</text>
<text text-anchor="start" x="157.825" y="-172.3" font-family="Times,serif" font-size="14.00">created_at :timestamp without time zone</text>
<text text-anchor="start" x="157.825" y="-158.3" font-family="Times,serif" font-size="14.00">id :integer</text>
</g>
<!-- Customer&#45;&gt;Pet -->
<g id="edge1" class="edge"><title>Customer&#45;&gt;Pet</title>
<path fill="none" stroke="#69eaf5" d="M220.772,-385.729C229.26,-359.705 238.929,-330.062 247.659,-303.298"/>
<ellipse fill="none" stroke="#69eaf5" cx="219.495" cy="-389.644" rx="4.00001" ry="4.00001"/>
<polygon fill="#69eaf5" stroke="#69eaf5" points="247.728,-303.086 255.107,-294.975 249.279,-298.333 250.829,-293.579 250.829,-293.579 250.829,-293.579 249.279,-298.333 246.551,-292.184 247.728,-303.086 247.728,-303.086"/>
</g>
<!-- Visit -->
<g id="node6" class="node"><title>Visit</title>
<path fill="none" stroke="black" d="M161.825,-0.5C161.825,-0.5 385.55,-0.5 385.55,-0.5 391.55,-0.5 397.55,-6.5 397.55,-12.5 397.55,-12.5 397.55,-102.5 397.55,-102.5 397.55,-108.5 391.55,-114.5 385.55,-114.5 385.55,-114.5 161.825,-114.5 161.825,-114.5 155.825,-114.5 149.825,-108.5 149.825,-102.5 149.825,-102.5 149.825,-12.5 149.825,-12.5 149.825,-6.5 155.825,-0.5 161.825,-0.5"/>
<text text-anchor="middle" x="273.688" y="-99.3" font-family="Times,serif" font-size="14.00">Visit</text>
<polyline fill="none" stroke="black" points="149.825,-92.5 397.55,-92.5 "/>
<text text-anchor="start" x="157.825" y="-77.3" font-family="Times,serif" font-size="14.00">id :integer</text>
<text text-anchor="start" x="157.825" y="-63.3" font-family="Times,serif" font-size="14.00">title :character varying</text>
<text text-anchor="start" x="157.825" y="-49.3" font-family="Times,serif" font-size="14.00">observation :text</text>
<text text-anchor="start" x="157.825" y="-35.3" font-family="Times,serif" font-size="14.00">Pet_id :integer</text>
<text text-anchor="start" x="157.825" y="-21.3" font-family="Times,serif" font-size="14.00">created_at :timestamp without time zone</text>
<text text-anchor="start" x="157.825" y="-7.3" font-family="Times,serif" font-size="14.00">updated_at :timestamp without time zone</text>
</g>
<!-- Pet&#45;&gt;Visit -->
<g id="edge2" class="edge"><title>Pet&#45;&gt;Visit</title>
<path fill="none" stroke="#55b025" d="M273.688,-143.348C273.688,-137.166 273.688,-130.958 273.688,-124.867"/>
<ellipse fill="none" stroke="#55b025" cx="273.688" cy="-147.427" rx="4" ry="4"/>
<polygon fill="#55b025" stroke="#55b025" points="273.688,-124.752 278.188,-114.752 273.688,-119.752 273.688,-114.752 273.688,-114.752 273.688,-114.752 273.688,-119.752 269.188,-114.752 273.688,-124.752 273.688,-124.752"/>
</g>
<!-- User -->
<g id="node4" class="node"><title>User</title>
<path fill="none" stroke="black" d="M390.053,-330.5C390.053,-330.5 685.323,-330.5 685.323,-330.5 691.323,-330.5 697.323,-336.5 697.323,-342.5 697.323,-342.5 697.323,-572.5 697.323,-572.5 697.323,-578.5 691.323,-584.5 685.323,-584.5 685.323,-584.5 390.053,-584.5 390.053,-584.5 384.053,-584.5 378.053,-578.5 378.053,-572.5 378.053,-572.5 378.053,-342.5 378.053,-342.5 378.053,-336.5 384.053,-330.5 390.053,-330.5"/>
<text text-anchor="middle" x="537.688" y="-569.3" font-family="Times,serif" font-size="14.00">User</text>
<polyline fill="none" stroke="black" points="378.053,-562.5 697.323,-562.5 "/>
<text text-anchor="start" x="386.053" y="-547.3" font-family="Times,serif" font-size="14.00">veterinary_id :integer</text>
<text text-anchor="start" x="386.053" y="-533.3" font-family="Times,serif" font-size="14.00">email :character varying</text>
<text text-anchor="start" x="386.053" y="-519.3" font-family="Times,serif" font-size="14.00">encrypted_password :character varying</text>
<text text-anchor="start" x="386.053" y="-505.3" font-family="Times,serif" font-size="14.00">reset_password_token :character varying</text>
<text text-anchor="start" x="386.053" y="-491.3" font-family="Times,serif" font-size="14.00">reset_password_sent_at :timestamp without time zone</text>
<text text-anchor="start" x="386.053" y="-477.3" font-family="Times,serif" font-size="14.00">remember_created_at :timestamp without time zone</text>
<text text-anchor="start" x="386.053" y="-463.3" font-family="Times,serif" font-size="14.00">sign_in_count :integer</text>
<text text-anchor="start" x="386.053" y="-449.3" font-family="Times,serif" font-size="14.00">current_sign_in_at :timestamp without time zone</text>
<text text-anchor="start" x="386.053" y="-435.3" font-family="Times,serif" font-size="14.00">last_sign_in_at :timestamp without time zone</text>
<text text-anchor="start" x="386.053" y="-421.3" font-family="Times,serif" font-size="14.00">current_sign_in_ip :inet</text>
<text text-anchor="start" x="386.053" y="-407.3" font-family="Times,serif" font-size="14.00">last_sign_in_ip :inet</text>
<text text-anchor="start" x="386.053" y="-393.3" font-family="Times,serif" font-size="14.00">created_at :timestamp without time zone</text>
<text text-anchor="start" x="386.053" y="-379.3" font-family="Times,serif" font-size="14.00">updated_at :timestamp without time zone</text>
<text text-anchor="start" x="386.053" y="-365.3" font-family="Times,serif" font-size="14.00">admin :boolean</text>
<text text-anchor="start" x="386.053" y="-351.3" font-family="Times,serif" font-size="14.00">name :character varying</text>
<text text-anchor="start" x="386.053" y="-337.3" font-family="Times,serif" font-size="14.00">id :integer</text>
</g>
<!-- Veterinary -->
<g id="node5" class="node"><title>Veterinary</title>
<path fill="none" stroke="black" d="M237.825,-621.5C237.825,-621.5 461.55,-621.5 461.55,-621.5 467.55,-621.5 473.55,-627.5 473.55,-633.5 473.55,-633.5 473.55,-723.5 473.55,-723.5 473.55,-729.5 467.55,-735.5 461.55,-735.5 461.55,-735.5 237.825,-735.5 237.825,-735.5 231.825,-735.5 225.825,-729.5 225.825,-723.5 225.825,-723.5 225.825,-633.5 225.825,-633.5 225.825,-627.5 231.825,-621.5 237.825,-621.5"/>
<text text-anchor="middle" x="349.688" y="-720.3" font-family="Times,serif" font-size="14.00">Veterinary</text>
<polyline fill="none" stroke="black" points="225.825,-713.5 473.55,-713.5 "/>
<text text-anchor="start" x="233.825" y="-698.3" font-family="Times,serif" font-size="14.00">id :integer</text>
<text text-anchor="start" x="233.825" y="-684.3" font-family="Times,serif" font-size="14.00">name :character varying</text>
<text text-anchor="start" x="233.825" y="-670.3" font-family="Times,serif" font-size="14.00">address :character varying</text>
<text text-anchor="start" x="233.825" y="-656.3" font-family="Times,serif" font-size="14.00">phone :character varying</text>
<text text-anchor="start" x="233.825" y="-642.3" font-family="Times,serif" font-size="14.00">created_at :timestamp without time zone</text>
<text text-anchor="start" x="233.825" y="-628.3" font-family="Times,serif" font-size="14.00">updated_at :timestamp without time zone</text>
</g>
<!-- Veterinary&#45;&gt;Customer -->
<g id="edge5" class="edge"><title>Veterinary&#45;&gt;Customer</title>
<path fill="none" stroke="#56f578" d="M305.961,-614.5C287.664,-588.137 266.302,-557.359 247.411,-530.14"/>
<ellipse fill="none" stroke="#56f578" cx="308.461" cy="-618.1" rx="4.00002" ry="4.00002"/>
<polygon fill="#56f578" stroke="#56f578" points="247.335,-530.031 245.33,-519.25 244.484,-525.924 241.633,-521.816 241.633,-521.816 241.633,-521.816 244.484,-525.924 237.936,-524.382 247.335,-530.031 247.335,-530.031"/>
</g>
<!-- Veterinary&#45;&gt;Pet -->
<g id="edge4" class="edge"><title>Veterinary&#45;&gt;Pet</title>
<path fill="none" stroke="#aa0ead" d="M354.409,-612.813C357.691,-541.988 357.497,-425.745 330.688,-330 328.149,-320.932 324.747,-311.769 320.863,-302.823"/>
<ellipse fill="none" stroke="#aa0ead" cx="354.19" cy="-617.226" rx="4" ry="4"/>
<polygon fill="#aa0ead" stroke="#aa0ead" points="320.803,-302.691 320.751,-291.725 318.73,-298.141 316.656,-293.591 316.656,-293.591 316.656,-293.591 318.73,-298.141 312.561,-295.457 320.803,-302.691 320.803,-302.691"/>
</g>
<!-- Veterinary&#45;&gt;User -->
<g id="edge3" class="edge"><title>Veterinary&#45;&gt;User</title>
<path fill="none" stroke="#4346f4" d="M403.218,-615.143C409.424,-607.914 415.921,-600.345 422.566,-592.604"/>
<ellipse fill="none" stroke="#4346f4" cx="400.464" cy="-618.351" rx="4.00002" ry="4.00002"/>
<polygon fill="#4346f4" stroke="#4346f4" points="422.742,-592.399 432.67,-587.743 425.999,-588.605 429.256,-584.812 429.256,-584.812 429.256,-584.812 425.999,-588.605 425.841,-581.88 422.742,-592.399 422.742,-592.399"/>
</g>
</g>
</svg>
