<?xml version="1.0" encoding="UTF-8" standalone="no"?>
<!DOCTYPE svg PUBLIC "-//W3C//DTD SVG 1.1//EN"
 "http://www.w3.org/Graphics/SVG/1.1/DTD/svg11.dtd">
<!-- Generated by graphviz version 2.38.0 (20140413.2041)
 -->
<!-- Title: models_diagram Pages: 1 -->
<svg width="363pt" height="297pt"
 viewBox="0.00 0.00 362.69 297.00" xmlns="http://www.w3.org/2000/svg" xmlns:xlink="http://www.w3.org/1999/xlink">
<g id="graph0" class="graph" transform="scale(1 1) rotate(0) translate(4 293)">
<title>models_diagram</title>
<polygon fill="none" stroke="none" points="-4,4 -4,-293 358.688,-293 358.688,4 -4,4"/>
<!-- _diagram_info -->
<g id="node1" class="node"><title>_diagram_info</title>
<text text-anchor="start" x="8" y="-274.6" font-family="Times,serif" font-size="13.00">Models diagram</text>
<text text-anchor="start" x="8" y="-261.6" font-family="Times,serif" font-size="13.00">Date: Apr 12 2016 &#45; 01:57</text>
<text text-anchor="start" x="8" y="-248.6" font-family="Times,serif" font-size="13.00">Migration version: 20160409194428</text>
<text text-anchor="start" x="8" y="-235.6" font-family="Times,serif" font-size="13.00">Generated by RailRoady 1.4.2</text>
<text text-anchor="start" x="8" y="-222.6" font-family="Times,serif" font-size="13.00">http://railroady.prestonlee.com</text>
</g>
<!-- Customer -->
<g id="node2" class="node"><title>Customer</title>
<ellipse fill="none" stroke="black" cx="200.688" cy="-162" rx="44.4923" ry="18"/>
<text text-anchor="middle" x="200.688" y="-157.8" font-family="Times,serif" font-size="14.00">Customer</text>
</g>
<!-- Pet -->
<g id="node3" class="node"><title>Pet</title>
<ellipse fill="none" stroke="black" cx="236.688" cy="-90" rx="27" ry="18"/>
<text text-anchor="middle" x="236.688" y="-85.8" font-family="Times,serif" font-size="14.00">Pet</text>
</g>
<!-- Customer&#45;&gt;Pet -->
<g id="edge1" class="edge"><title>Customer&#45;&gt;Pet</title>
<path fill="none" stroke="#d95e97" d="M213.087,-136.889C216.462,-130.328 220.128,-123.199 223.542,-116.56"/>
<ellipse fill="none" stroke="#d95e97" cx="211.232" cy="-140.498" rx="4.00002" ry="4.00002"/>
<polygon fill="#d95e97" stroke="#d95e97" points="223.728,-116.2 232.303,-109.365 226.015,-111.753 228.301,-107.307 228.301,-107.307 228.301,-107.307 226.015,-111.753 224.299,-105.249 223.728,-116.2 223.728,-116.2"/>
</g>
<!-- Visit -->
<g id="node6" class="node"><title>Visit</title>
<ellipse fill="none" stroke="black" cx="236.688" cy="-18" rx="27" ry="18"/>
<text text-anchor="middle" x="236.688" y="-13.8" font-family="Times,serif" font-size="14.00">Visit</text>
</g>
<!-- Pet&#45;&gt;Visit -->
<g id="edge2" class="edge"><title>Pet&#45;&gt;Visit</title>
<path fill="none" stroke="#80e9a2" d="M236.688,-63.6398C236.688,-58.0629 236.688,-52.1319 236.688,-46.4761"/>
<ellipse fill="none" stroke="#80e9a2" cx="236.688" cy="-67.6966" rx="4" ry="4"/>
<polygon fill="#80e9a2" stroke="#80e9a2" points="236.688,-46.1043 241.188,-36.1043 236.688,-41.1043 236.688,-36.1043 236.688,-36.1043 236.688,-36.1043 236.688,-41.1043 232.188,-36.1044 236.688,-46.1043 236.688,-46.1043"/>
</g>
<!-- User -->
<g id="node4" class="node"><title>User</title>
<ellipse fill="none" stroke="black" cx="327.688" cy="-162" rx="27" ry="18"/>
<text text-anchor="middle" x="327.688" y="-157.8" font-family="Times,serif" font-size="14.00">User</text>
</g>
<!-- Veterinary -->
<g id="node5" class="node"><title>Veterinary</title>
<ellipse fill="none" stroke="black" cx="272.688" cy="-252.5" rx="46.8719" ry="18"/>
<text text-anchor="middle" x="272.688" y="-248.3" font-family="Times,serif" font-size="14.00">Veterinary</text>
</g>
<!-- Veterinary&#45;&gt;Customer -->
<g id="edge5" class="edge"><title>Veterinary&#45;&gt;Customer</title>
<path fill="none" stroke="#455e8c" d="M254.01,-228.542C243.699,-215.868 230.899,-200.134 220.424,-187.259"/>
<ellipse fill="none" stroke="#455e8c" cx="256.621" cy="-231.751" rx="4.00002" ry="4.00002"/>
<polygon fill="#455e8c" stroke="#455e8c" points="220.237,-187.03 217.417,-176.433 217.082,-183.151 213.926,-179.273 213.926,-179.273 213.926,-179.273 217.082,-183.151 210.436,-182.112 220.237,-187.03 220.237,-187.03"/>
</g>
<!-- Veterinary&#45;&gt;Pet -->
<g id="edge4" class="edge"><title>Veterinary&#45;&gt;Pet</title>
<path fill="none" stroke="#2238e9" d="M269.189,-226.084C265.936,-204.172 260.563,-171.773 253.688,-144 251.542,-135.331 248.73,-126.013 246.012,-117.645"/>
<ellipse fill="none" stroke="#2238e9" cx="269.795" cy="-230.262" rx="4.00001" ry="4.00001"/>
<polygon fill="#2238e9" stroke="#2238e9" points="245.964,-117.502 247.063,-106.591 244.379,-112.759 242.795,-108.017 242.795,-108.017 242.795,-108.017 244.379,-112.759 238.527,-109.443 245.964,-117.502 245.964,-117.502"/>
</g>
<!-- Veterinary&#45;&gt;User -->
<g id="edge3" class="edge"><title>Veterinary&#45;&gt;User</title>
<path fill="none" stroke="#1a158b" d="M287.502,-227.663C295.221,-215.242 304.648,-200.073 312.431,-187.55"/>
<ellipse fill="none" stroke="#1a158b" cx="285.144" cy="-231.456" rx="4.00002" ry="4.00002"/>
<polygon fill="#1a158b" stroke="#1a158b" points="312.481,-187.469 321.582,-181.351 315.12,-183.222 317.76,-178.975 317.76,-178.975 317.76,-178.975 315.12,-183.222 313.937,-176.6 312.481,-187.469 312.481,-187.469"/>
</g>
</g>
</svg>
